<svg width="94" height="135" viewBox="0 0 94 135" fill="none" xmlns="http://www.w3.org/2000/svg">
<path d="M35.7018 33.3164C33.6985 36.3325 32.7337 40.3516 32.571 45.1445H3.00045C3.62135 35.8063 5.86617 28.1707 9.61643 22.1286L9.62146 22.1205L9.62643 22.1124C13.7724 15.3177 19.1313 10.4387 25.7067 7.37774L25.7227 7.37031L25.7385 7.36266C32.4245 4.13493 39.8969 2.5 48.2 2.5C62.794 2.5 73.1648 6.11862 79.8236 12.8884C86.6028 19.7806 90.0587 28.7336 90.0587 39.9775C90.0587 52.025 86.0185 63.3642 77.7989 74.0497L77.7936 74.0566L77.7884 74.0635C69.5672 84.906 59.2394 94.6456 46.777 103.273L40.1969 107.829H48.2H91.3365V131.854H3.23814V108.736C14.6333 99.787 24.0314 92.0323 31.422 85.4762C39.0827 78.6804 45.5392 71.6715 50.7725 64.4446L50.7785 64.4364L50.7843 64.4281C56.0889 56.9764 58.9146 49.6624 58.9146 42.5332C58.9146 38.2839 57.9216 34.6141 55.6237 31.8376C53.3388 28.9227 49.9785 27.6201 46.0095 27.6201C41.6115 27.6201 38.0952 29.5892 35.7018 33.3164Z" stroke="#0147FF" stroke-width="5"/>
</svg>
