<svg width="95" height="139" viewBox="0 0 95 139" fill="none" xmlns="http://www.w3.org/2000/svg">
<path d="M4.11503 41.0331C4.999 29.0675 9.01758 20.0919 15.9359 13.8025L15.9435 13.7956L15.9511 13.7886C23.3915 6.91182 33.9093 3.31738 47.8426 3.31738C56.9289 3.31738 64.4958 4.91103 70.6381 7.98219L70.6628 7.99452L70.6877 8.0063C76.9983 10.9895 81.6506 15.0613 84.7719 20.1893L84.7783 20.1998L84.7848 20.2102C87.927 25.2601 89.5187 31.0025 89.5187 37.5091C89.5187 45.3763 87.6158 51.3991 84.0562 55.8278C80.2894 60.3899 76.1038 63.3621 71.5132 64.8923L69.8038 65.4622V67.2641V67.9942V69.7318L71.4323 70.3374C78.4305 72.9401 83.4948 76.6555 86.8251 81.3894C90.1531 86.1201 91.8918 92.0703 91.8918 99.3921C91.8918 106.661 90.2236 112.957 86.9582 118.362C83.6995 123.756 78.9671 128.006 72.6624 131.101C66.3844 134.183 58.8075 135.774 49.8506 135.774C35.0379 135.774 23.6174 132.225 15.3086 125.402C7.73631 118.979 3.3988 109.271 2.61936 95.8681H32.3714C32.5491 100.005 33.7129 103.564 36.0931 106.32C39.0163 109.705 43.2771 111.202 48.3903 111.202C52.461 111.202 55.9323 109.918 58.448 107.105C61.0265 104.36 62.2081 100.787 62.2081 96.6539C62.2081 91.445 60.4601 87.1882 56.6247 84.4166C53.0368 81.7367 47.5519 80.6455 40.7233 80.6455H36.8342V56.6208H40.5085C45.4073 56.7457 49.7233 55.9755 53.3418 54.1663L53.3582 54.1581L53.3745 54.1496C57.7771 51.8668 59.6525 47.4375 59.6525 41.8902C59.6525 37.776 58.6631 34.2263 56.2108 31.7542C53.8282 29.2298 50.6317 28.0723 46.9299 28.0723C42.7099 28.0723 39.2428 29.6553 37.0003 33.0191L36.9922 33.0312L36.9843 33.0433C35.492 35.3392 34.551 38.0232 34.0981 41.0331H4.11503Z" stroke="#0147FF" stroke-width="5"/>
</svg>
