<svg width="193" height="195" viewBox="0 0 193 195" fill="none" xmlns="http://www.w3.org/2000/svg">
<path fill-rule="evenodd" clip-rule="evenodd" d="M71.1533 171.204V7H121.307V171.204H71.1533ZM67.4154 178.204C65.6277 178.204 64.1758 176.766 64.1536 174.984V191.235C64.1536 193.037 62.6931 194.497 60.8915 194.497H3.26204C1.46046 194.497 0 193.037 0 191.235V19.555C0 17.7535 1.46047 16.293 3.26205 16.293H19.3477V3.26209C19.3477 1.46051 20.8081 4.57764e-05 22.6097 4.57764e-05H41.5434C43.345 4.57764e-05 44.8054 1.46051 44.8054 3.26209V16.293H60.8915C62.6792 16.293 64.1311 17.7311 64.1533 19.5135V3.26204C64.1533 1.46046 65.6138 0 67.4154 0H125.045C126.846 0 128.307 1.46045 128.307 3.26204V174.942C128.307 176.744 126.846 178.204 125.045 178.204H108.959V191.235C108.959 193.037 107.498 194.497 105.697 194.497H86.763C84.9614 194.497 83.501 193.037 83.501 191.235V178.204H67.4154ZM26.3477 13.3663V7.00005H37.8054V13.3663H26.3477ZM7 187.497V23.293H57.1536V187.497H7ZM135.309 23.293V187.497H185.462V23.293H135.309ZM131.571 16.293C129.769 16.293 128.309 17.7535 128.309 19.555V191.235C128.309 193.037 129.769 194.497 131.571 194.497H189.2C191.002 194.497 192.462 193.037 192.462 191.235V19.5551C192.462 17.7535 191.002 16.293 189.2 16.293H173.114V3.26209C173.114 1.46051 171.654 4.57764e-05 169.852 4.57764e-05H150.918C149.117 4.57764e-05 147.656 1.46051 147.656 3.26209V16.293H131.571ZM154.656 13.3663V7.00005H166.114V13.3663H154.656ZM90.501 181.131V187.497H101.959V181.131H90.501Z" fill="#0147FF"/>
</svg>
