<svg width="236" height="188" viewBox="0 0 236 188" fill="none" xmlns="http://www.w3.org/2000/svg">
<path fill-rule="evenodd" clip-rule="evenodd" d="M117.164 0.192145C116.061 -0.0711199 114.912 -0.0637509 113.813 0.213622L27.1192 22.0975C26.9561 22.1376 26.7945 22.1836 26.6346 22.2354C25.5052 22.6003 24.5148 23.2354 23.7278 24.0567L23.7231 24.0616L1.97914 46.5069C0.348893 48.1897 -0.334893 50.5746 0.15601 52.8656C0.646912 55.1566 2.24786 57.052 4.42449 57.9191L22.2559 65.0227L23.182 134.299C23.2163 136.868 24.6505 139.213 26.9216 140.414L114.714 186.841C116.768 187.927 119.226 187.927 121.281 186.841L209.073 140.414C211.344 139.213 212.778 136.868 212.812 134.299L213.742 65.0234L231.576 57.9191C233.752 57.052 235.353 55.1566 235.844 52.8656C236.335 50.5746 235.651 48.1897 234.021 46.5069L212.276 24.0608L212.272 24.0563C211.705 23.465 211.033 22.9706 210.28 22.6039C210.189 22.5599 210.098 22.5178 210.006 22.4778C209.617 22.3083 209.213 22.1748 208.801 22.0784L208.793 22.0764L117.164 0.192145ZM113.728 47.4854L41.9696 25.593L115.532 7.02381L193.539 25.6547L120.211 47.4714C118.932 47.8518 117.807 48.5823 116.946 49.5575C116.096 48.5938 114.987 47.8695 113.728 47.4854ZM114.488 63.3806L99.4985 89.3245C97.7537 92.3443 94.0573 93.6265 90.8174 92.3358L29.3179 67.836L30.2051 134.205L114.488 178.776L114.488 63.3806ZM121.512 178.773L205.789 134.205L206.68 67.8368L145.183 92.3358C142.062 93.5788 138.499 92.4388 136.679 89.6155L121.512 66.0803L121.512 178.773ZM122.214 54.2035L207.202 28.9178L228.976 51.394L142.583 85.8107L122.214 54.2035ZM28.7977 28.9178L111.679 54.2035L93.4168 85.8107L7.02392 51.394L28.7977 28.9178Z" fill="#0147FF"/>
</svg>
