<svg width="134" height="55" viewBox="0 0 134 55" fill="none" xmlns="http://www.w3.org/2000/svg">
<path d="M11.3746 2H1.41253C0.470845 2 0 2.47084 0 3.41253V45.9372C0 46.8789 0.173469 47.7958 0.520407 48.688C0.916908 49.5305 1.43732 50.274 2.08163 50.9183C2.72594 51.5626 3.46938 52.083 4.31195 52.4795C5.20407 52.8264 6.12098 52.9999 7.06267 52.9999H24.8309C25.8221 52.9999 26.739 52.8264 27.5816 52.4795C28.4241 52.083 29.1676 51.5626 29.8119 50.9183C30.4562 50.274 30.9518 49.5305 31.2988 48.688C31.6953 47.7958 31.8935 46.8789 31.8935 45.9372V14.7128H38.2871V45.9372C38.2871 46.8789 38.4606 47.7958 38.8075 48.688C39.204 49.5305 39.6996 50.274 40.2944 50.9183C40.9387 51.5626 41.6821 52.083 42.5247 52.4795C43.4168 52.8264 44.3585 52.9999 45.3498 52.9999H63.0436C64.0349 52.9999 64.9518 52.8264 65.7943 52.4795C66.6865 52.083 67.4547 51.5626 68.099 50.9183C68.7433 50.274 69.239 49.5305 69.5859 48.688C69.9824 47.7958 70.1806 46.8789 70.1806 45.9372L70.0937 14.7872H76.4872V45.9373C76.4872 47.9198 77.1811 49.5802 78.5689 50.9184C79.9071 52.3061 81.5674 53 83.5499 53H101.244C103.226 53 104.911 52.3061 106.299 50.9184C107.687 49.5802 108.381 47.9198 108.381 45.9373V14.7872H114.7V51.5875C114.7 52.5292 115.171 53 116.113 53H126.075C127.016 53 127.487 52.5292 127.487 51.5875V9.06276C127.487 8.12107 127.314 7.20416 126.967 6.31204C126.57 5.46947 126.05 4.72603 125.406 4.08172C124.761 3.4374 124.018 2.917 123.175 2.5205C122.283 2.17356 121.366 2.00009 120.424 2.00009H102.656C101.665 2.00009 100.748 2.17356 99.9056 2.5205C99.063 2.917 98.3196 3.4374 97.6752 4.08172C97.0309 4.72603 96.5353 5.46947 96.1884 6.31204C95.7919 7.20416 95.5936 8.12107 95.5936 9.06276V40.2872H89.2V9.06276C89.2 8.12107 89.0266 7.20416 88.6796 6.31204C88.2831 5.46947 87.7875 4.72603 87.1928 4.08172C86.5484 3.4374 85.805 2.917 84.9624 2.5205C84.0703 2.17356 83.1286 2.00009 82.1374 2.00009H64.4435C63.4523 2.00009 62.5354 2.17356 61.6928 2.5205C60.8007 2.917 60.0325 3.4374 59.3881 4.08172C58.7438 4.72603 58.2482 5.46947 57.9013 6.31204C57.5048 7.20416 57.3065 8.12107 57.3065 9.06276L57.3935 40.2128H50.9999V9.06267C50.9999 7.08017 50.306 5.41982 48.9183 4.08163C47.5801 2.69388 45.9197 2 43.9372 2H26.2434C24.2609 2 22.5758 2.69388 21.188 4.08163C19.8003 5.41982 19.1064 7.08017 19.1064 9.06267V40.2128H12.7871V3.41253C12.7871 2.47084 12.3163 2 11.3746 2Z" fill="#0047FF"/>
<path d="M3.5884 49.0504L3.6009 49.0826L3.61559 49.1138C4.06016 50.0585 4.64675 50.8976 5.37452 51.6254C6.10229 52.3532 6.94143 52.9398 7.88615 53.3843L7.91736 53.399L7.9495 53.4115C8.95524 53.8026 9.99492 53.9999 11.0627 53.9999H28.8309C29.9412 53.9999 30.9887 53.8051 31.9623 53.4042L31.9851 53.3948L32.0074 53.3843C32.9521 52.9398 33.7912 52.3532 34.519 51.6254C35.2534 50.891 35.8212 50.0409 36.2182 49.0815C36.6657 48.0702 36.8935 47.0195 36.8935 45.9372V15.7128H41.2871V45.9372C41.2871 47.005 41.4844 48.0447 41.8755 49.0504L41.888 49.0826L41.9027 49.1138C42.34 50.0429 42.8914 50.8727 43.5596 51.5966L43.5731 51.6113L43.5873 51.6254C44.3151 52.3532 45.1542 52.9398 46.0989 53.3843L46.1301 53.399L46.1623 53.4115C47.1741 53.805 48.239 53.9999 49.3498 53.9999H67.0436C68.1539 53.9999 69.2015 53.8051 70.1751 53.4042L70.1879 53.3989L70.2005 53.3933C71.1967 52.9506 72.069 52.3625 72.8061 51.6254C73.5406 50.891 74.1084 50.0409 74.5053 49.0814C74.9528 48.0701 75.1806 47.0195 75.1806 45.9372L75.1806 45.9344L75.0965 15.7872H79.4872V45.9373C79.4872 48.1765 80.281 50.095 81.8616 51.6255C83.3921 53.2062 85.3107 54 87.5499 54H105.244C107.485 54 109.424 53.2051 111 51.6319C112.585 50.1004 113.381 48.1796 113.381 45.9373V15.7872H117.7V51.5875C117.7 52.2125 117.857 52.8649 118.346 53.354C118.835 53.8431 119.488 54 120.113 54H130.075C130.7 54 131.352 53.8431 131.841 53.354C132.33 52.8649 132.487 52.2125 132.487 51.5875V9.06276C132.487 7.99501 132.29 6.95533 131.899 5.94959L131.886 5.91744L131.872 5.88624C131.427 4.94153 130.84 4.10238 130.113 3.37461C129.385 2.64684 128.546 2.06025 127.601 1.61568L127.57 1.60099L127.538 1.58849C126.532 1.19737 125.492 1.00009 124.424 1.00009H106.656C105.546 1.00009 104.498 1.19493 103.525 1.59582L103.502 1.60519L103.48 1.61568C102.535 2.06025 101.696 2.64684 100.968 3.37461C100.234 4.10899 99.666 4.95901 99.269 5.91837C98.8215 6.92971 98.5936 7.98043 98.5936 9.06276V39.2872H94.2V9.06276C94.2 7.99501 94.0028 6.95533 93.6116 5.94959L93.5991 5.91744L93.5845 5.88624C93.1472 4.95707 92.5957 4.12726 91.9276 3.40344L91.914 3.38875L91.8999 3.37461C91.1721 2.64684 90.3329 2.06025 89.3882 1.61568L89.357 1.60099L89.3249 1.58849C88.3131 1.19502 87.2481 1.00009 86.1374 1.00009H68.4435C67.3332 1.00009 66.2856 1.19493 65.3121 1.59582L65.2993 1.60108L65.2867 1.60668C64.2905 2.04945 63.4182 2.63748 62.681 3.37461C61.9466 4.10902 61.3788 4.95908 60.9819 5.9185C60.5344 6.92981 60.3065 7.98048 60.3065 9.06276L60.3065 9.06555L60.3907 39.2128H55.9999V9.06267C55.9999 6.82347 55.2061 4.90494 53.6255 3.37441C52.095 1.79376 50.1764 1 47.9372 1H30.2434C28.0017 1 26.0636 1.79495 24.4873 3.36813C22.9023 4.89969 22.1064 6.82041 22.1064 9.06267V39.2128H17.7871V3.41253C17.7871 2.78754 17.6302 2.13513 17.1411 1.64603C16.652 1.15692 15.9996 1 15.3746 1H5.41253C4.78754 1 4.13513 1.15692 3.64603 1.64603C3.15692 2.13513 3 2.78754 3 3.41253V45.9372C3 47.005 3.19728 48.0447 3.5884 49.0504Z" stroke="black" stroke-width="2"/>
</svg>
